<svg xmlns="http://www.w3.org/2000/svg" version="1.1" xmlns:xlink="http://www.w3.org/1999/xlink" xmlns:svgjs="http://svgjs.dev/svgjs" width="2000" height="267" viewBox="0 0 2000 267"><g transform="matrix(1,0,0,1,-1.2121212121212466,-0.17431950377849148)"><svg viewBox="0 0 396 53" data-background-color="#e00700" preserveAspectRatio="xMidYMid meet" height="267" width="2000" xmlns="http://www.w3.org/2000/svg" xmlns:xlink="http://www.w3.org/1999/xlink"><g id="tight-bounds" transform="matrix(1,0,0,1,0.2400000000000091,0.03460274794105089)"><svg viewBox="0 0 395.52 52.93079450411789" height="52.93079450411789" width="395.52"><g><svg viewBox="0 0 467.2916833333333 62.5357" height="52.93079450411789" width="395.52"><g><svg viewBox="0 0 467.2916833333333 62.5357" height="62.5357" width="467.2916833333333"><g id="textblocktransform"><svg viewBox="0 0 467.2916833333333 62.5357" height="62.5357" width="467.2916833333333" id="textblock"><g><svg viewBox="0 0 467.2916833333333 62.5357" height="62.5357" width="467.2916833333333"><g><svg><g></g><g></g></svg></g><g><svg><g></g><g><svg></svg></g></svg></g><g id="text-0"><svg viewBox="0 0 467.2916833333333 62.5357" height="62.5357" width="467.2916833333333"><g transform="matrix(1,0,0,1,0,12.917849999999998)"><svg width="165.95000000000002" viewBox="0.95 -36 165.94 36.7" height="36.7" data-palette-color="#fef1f3"><path d="M26.95-21L25.6-13.2 12.3-13.2 10 0 0.95 0 7.3-36 32.4-36 31-28.2 14.9-28.2 13.65-21 26.95-21ZM53.5-7.7L53.5-7.7Q53.5-6.4 54.82-6.4 56.15-6.4 57.05-6.9L57.05-6.9 56.8-1.25Q54.4 0.7 51.4 0.7L51.4 0.7Q45.9 0.7 45.3-3.3L45.3-3.3Q42.8 0.7 37.95 0.7L37.95 0.7Q29.75 0.7 29.75-6.35L29.75-6.35Q29.75-7.55 30-9L30-9 31.05-14.85Q31.85-19.35 34.72-22.03 37.6-24.7 42.22-24.7 46.85-24.7 48.5-22.55L48.5-22.55 48.75-24.05 56.35-24.05 53.55-8.3Q53.5-8 53.5-7.7ZM39.35-13.85L38.7-10.1Q38.6-9.65 38.6-8.85 38.6-8.05 39.35-7.28 40.1-6.5 41.87-6.5 43.65-6.5 44.95-7.9L44.95-7.9 46.45-16.3Q45.9-17.55 43.85-17.55L43.85-17.55Q40-17.55 39.35-13.85L39.35-13.85ZM85.15-18.85L85.15-18.85Q85.15-17.2 84.15-15.8L84.15-15.8 75.95-15.8Q76.34-16.1 76.34-16.8 76.34-17.5 75.55-17.93 74.75-18.35 73.5-18.35L73.5-18.35Q69.75-18.35 69.75-16.05L69.75-16.05Q69.75-15.15 71.15-14.75 72.55-14.35 74.55-14.1 76.55-13.85 78.55-13.38 80.55-12.9 81.95-11.5 83.34-10.1 83.34-7.75L83.34-7.75Q83.34-3.6 80.02-1.45 76.7 0.7 70.34 0.7 64 0.7 61.45-1.35L61.45-1.35Q59.45-2.95 59.45-5.75L59.45-5.75Q59.45-6.55 59.59-7.4L59.59-7.4 67.95-7.5Q67.84-6.8 68.77-6.28 69.7-5.75 71.5-5.75 73.3-5.75 74.09-6.13 74.9-6.5 74.9-7.55L74.9-7.55Q74.9-8.25 73.5-8.53 72.09-8.8 70.07-9 68.05-9.2 66.02-9.65 64-10.1 62.59-11.55 61.2-13 61.2-15.35L61.2-15.35Q61.2-19.9 64.72-22.35 68.25-24.8 74.9-24.8L74.9-24.8Q85.15-24.8 85.15-18.85ZM98.29 0.7L98.29 0.7Q92.49 0.7 89.94-1.9L89.94-1.9Q88.04-3.8 88.04-7L88.04-7Q88.04-8.05 88.24-9.25L88.24-9.25 91.64-28.6 100.79-32.4 99.34-24.05 113.14-24.05 111.89-17 98.09-17 97.09-11.35Q96.89-10.4 96.89-9.65L96.89-9.65Q96.89-6.5 99.89-6.5L99.89-6.5Q101.49-6.5 102.57-7.85 103.64-9.2 104.04-11.45L104.04-11.45 112.34-11.45Q110.24 0.7 98.29 0.7ZM125.14 0.7L125.14 0.7Q114.74 0.7 114.74-6.5L114.74-6.5Q114.74-7.5 114.94-8.65L114.94-8.65 115.99-14.85Q116.84-19.65 120.42-22.23 123.99-24.8 129.89-24.8L129.89-24.8Q139.94-24.8 139.94-17.2L139.94-17.2Q139.94-16.1 139.74-14.8L139.74-14.8 139.14-11.25 123.89-11.25 123.69-10.1Q123.59-9.5 123.59-9L123.59-9Q123.59-6.25 126.84-6.25L126.84-6.25Q128.04-6.25 128.89-7 129.74-7.75 129.89-8.75L129.89-8.75 138.19-8.65Q136.54 0.7 125.14 0.7ZM124.39-14.3L131.14-14.3Q131.34-15.15 131.34-15.88 131.34-16.6 130.69-17.35 130.04-18.1 128.62-18.1 127.19-18.1 126.02-17.15 124.84-16.2 124.39-14.3L124.39-14.3ZM166.89-18.95L166.89-18.95Q166.89-17.25 166.31-15.65 165.74-14.05 165.19-13.3L165.19-13.3 164.64-12.6 157.09-12.6Q158.34-13.75 158.34-15.45L158.34-15.45Q158.34-16.35 157.76-16.93 157.19-17.5 156.19-17.5L156.19-17.5Q154.49-17.5 153.24-15.8L153.24-15.8 150.44 0 141.94 0 146.19-24.05 154.09-24.05 153.49-20.7Q156.34-24.75 160.39-24.75L160.39-24.75Q163.64-24.75 165.26-23.2 166.89-21.65 166.89-18.95Z" opacity="1" transform="matrix(1,0,0,1,0,0)" fill="#fef1f3" class="undefined-yy-0"></path></svg></g><g><svg xmlns="http://www.w3.org/2000/svg" xmlns:xlink="http://www.w3.org/1999/xlink" version="1.1" x="180.7143" y="0" viewBox="12.5 5 75 90" enable-background="new 0 0 100 100" xml:space="preserve" height="62.5357" width="52.113083333333336" class="icon-cg-0" data-fill-palette-color="accent" id="cg-0"><path d="M12.5 57.5C12.5 78.2 29.3 95 50 95s37.5-16.8 37.5-37.5c0-18.1-12.9-33.3-30-36.7v-3.3H60c1.4 0 2.5-1.1 2.5-2.5V7.5C62.5 6.1 61.4 5 60 5H40c-1.4 0-2.5 1.1-2.5 2.5V15c0 1.4 1.1 2.5 2.5 2.5h2.5v3.3C25.4 24.2 12.5 39.4 12.5 57.5zM42.5 10h15v2.5h-15V10zM52.5 17.5v2.6C51.7 20 50.8 20 50 20s-1.7 0-2.5 0.1v-2.6H52.5zM50 25c17.9 0 32.5 14.6 32.5 32.5S67.9 90 50 90 17.5 75.4 17.5 57.5 32.1 25 50 25z" fill="#c4b2e1" data-fill-palette-color="accent"></path><path d="M25.9 53.6c1.3 0.4 2.7-0.4 3.1-1.8 1.3-4.8 4.1-8.9 8-11.8l1.4 2.3c-3.3 2.5-5.7 6.1-6.8 10.2-0.4 1.3 0.4 2.7 1.8 3.1s2.7-0.4 3.1-1.8c0.8-2.8 2.3-5.3 4.5-7.1l1.1 1.9c-1.7 1.5-2.9 3.5-3.5 5.7-0.4 1.3 0.4 2.7 1.8 3.1 1.3 0.4 2.7-0.4 3.1-1.8 0.3-0.9 0.7-1.8 1.3-2.5l3.2 5.6c0.5 0.8 1.3 1.3 2.2 1.3 0.4 0 0.9-0.1 1.2-0.3 1.2-0.7 1.6-2.2 0.9-3.4L40 35.3c-0.3-0.6-0.9-1-1.5-1.2-0.6-0.2-1.3-0.1-1.9 0.3-6.2 3.6-10.6 9.3-12.5 16.2C23.8 51.9 24.6 53.3 25.9 53.6z" fill="#c4b2e1" data-fill-palette-color="accent"></path></svg></g><g transform="matrix(1,0,0,1,247.59168333333332,10.967849999999999)"><svg width="219.7" viewBox="2.9 -37.95 219.68 38.650000000000006" height="38.650000000000006" data-palette-color="#fef1f3"><path d="M38-36L36.6-28.2 24.3-28.2 19.35 0 10.3 0 15.25-28.2 2.9-28.2 4.3-36 38-36ZM61.85-6.4L61.85-6.4Q63-6.4 63.9-6.9L63.9-6.9 63.65-1.25Q61.3 0.7 58.3 0.7L58.3 0.7Q51.5 0.7 51.5-5L51.5-5Q51.5-6 51.7-7.15L51.7-7.15 52.8-13.3Q52.95-14.2 52.95-15.1L52.95-15.1Q52.95-17.5 50.42-17.5 47.9-17.5 46.5-15.8L46.5-15.8 43.7 0 35.2 0 41.9-37.95 50.4-37.95 47.55-21.8Q50.3-24.75 54.45-24.75L54.45-24.75Q59.5-24.75 61-22.5L61-22.5Q62.05-21 62.05-19.15 62.05-17.3 61.75-15.75L61.75-15.75 60.4-8.3Q60.35-8 60.35-7.75L60.35-7.75Q60.35-6.4 61.85-6.4ZM90.3-7.7L90.3-7.7Q90.3-6.4 91.62-6.4 92.95-6.4 93.84-6.9L93.84-6.9 93.59-1.25Q91.2 0.7 88.2 0.7L88.2 0.7Q82.7 0.7 82.09-3.3L82.09-3.3Q79.59 0.7 74.75 0.7L74.75 0.7Q66.55 0.7 66.55-6.35L66.55-6.35Q66.55-7.55 66.8-9L66.8-9 67.84-14.85Q68.65-19.35 71.52-22.03 74.4-24.7 79.02-24.7 83.65-24.7 85.3-22.55L85.3-22.55 85.55-24.05 93.15-24.05 90.34-8.3Q90.3-8 90.3-7.7ZM76.15-13.85L75.5-10.1Q75.4-9.65 75.4-8.85 75.4-8.05 76.15-7.28 76.9-6.5 78.67-6.5 80.45-6.5 81.75-7.9L81.75-7.9 83.25-16.3Q82.7-17.55 80.65-17.55L80.65-17.55Q76.8-17.55 76.15-13.85L76.15-13.85ZM113.04-15.35L113.04-15.35Q113.04-17.5 110.97-17.5 108.89-17.5 107.54-15.95L107.54-15.95 104.74 0 96.24 0 100.49-24.05 108.39-24.05 107.84-21.1Q110.79-24.75 115.29-24.75 119.79-24.75 121.14-22.55L121.14-22.55Q121.99-21.15 121.99-19.35 121.99-17.55 121.74-16L121.74-16 120.39-8.3Q120.34-8 120.34-7.75L120.34-7.75Q120.34-6.4 121.84-6.4L121.84-6.4Q122.99-6.4 123.89-6.9L123.89-6.9 123.64-1.25Q121.29 0.7 118.29 0.7L118.29 0.7Q111.49 0.7 111.49-5L111.49-5Q111.49-6 111.69-7.15L111.69-7.15 112.89-13.8Q113.04-14.7 113.04-15.35ZM154.94-23.35L156.09-23.35 164.54-36 173.54-36 158.14-13.85 155.69 0 146.64 0 149.09-13.85 141.49-36 151.04-36 154.94-23.35ZM181.69-24.75L181.69-24.75Q187.08-24.75 189.83-22.4L189.83-22.4Q191.98-20.55 191.98-17.25L191.98-17.25Q191.98-16.15 191.73-14.85L191.73-14.85 190.69-9Q189.73-3.7 186.26-1.5 182.78 0.7 176.98 0.7 171.19 0.7 168.48-1.5L168.48-1.5Q166.48-3.15 166.48-6.45L166.48-6.45Q166.48-7.6 166.73-9L166.73-9 167.78-14.85Q169.53-24.75 181.69-24.75ZM182.38-10.1L183.03-13.85Q183.13-14.35 183.13-15.13 183.13-15.9 182.48-16.85 181.83-17.8 180.21-17.8 178.58-17.8 177.48-16.73 176.38-15.65 176.08-13.85L176.08-13.85 175.44-10.1Q175.33-9.6 175.33-8.83 175.33-8.05 175.98-7.15 176.63-6.25 178.26-6.25 179.88-6.25 180.98-7.38 182.08-8.5 182.38-10.1L182.38-10.1ZM219.03-7.7L219.03-7.7Q219.03-6.4 220.36-6.4 221.68-6.4 222.58-6.9L222.58-6.9 222.33-1.25Q219.93 0.7 216.93 0.7L216.93 0.7Q211.28 0.7 210.78-3.65L210.78-3.65Q207.78 0.7 202.71 0.7 197.63 0.7 196.13-1.6L196.13-1.6Q195.13-3.05 195.13-4.9 195.13-6.75 195.43-8.3L195.43-8.3 198.23-24.05 206.73-24.05 204.38-10.75Q204.23-9.85 204.23-8.95L204.23-8.95Q204.23-6.55 206.93-6.55L206.93-6.55Q209.18-6.55 210.53-8.1L210.53-8.1 213.38-24.05 221.88-24.05 219.08-8.3Q219.03-8 219.03-7.7Z" opacity="1" transform="matrix(1,0,0,1,0,0)" fill="#fef1f3" class="undefined-yy-1"></path></svg></g></svg></g></svg></g></svg></g></svg></g></svg></g><defs></defs></svg><rect width="395.52" height="52.93079450411789" fill="none" stroke="none" visibility="hidden"></rect></g></svg></g></svg>